<svg width="38" height="38" viewBox="0 0 38 38" fill="none" xmlns="http://www.w3.org/2000/svg">
<path d="M0.997971 20.1999C1.00161 23.1807 3.41713 25.5963 6.39795 25.5999H12.3979V31.5999C12.4016 34.5807 14.8171 36.9962 17.7979 36.9998H20.1979C23.1787 36.9962 25.5942 34.5807 25.5979 31.5999V28.0665C25.7944 28.0201 25.9959 27.9978 26.1979 27.9999C26.7357 27.9891 27.2606 28.1653 27.6829 28.4985C28.3089 28.9652 29.0717 29.2118 29.8524 29.1999C31.0247 29.246 32.0981 28.5459 32.5284 27.4545C33.1095 25.8196 32.6938 23.9961 31.4616 22.7745C30.966 22.249 30.5368 21.6647 30.1836 21.0345C29.3904 19.7391 28.5709 18.3999 26.1979 18.3999C23.8249 18.3999 23.0053 19.7391 22.2121 21.0339C21.8589 21.6641 21.4297 22.2484 20.9341 22.7739C19.7019 23.9955 19.2863 25.819 19.8673 27.4539C20.2975 28.5455 21.3708 29.2459 22.5433 29.1999C23.1971 29.2156 23.8413 29.0411 24.3979 28.6977V31.5999C24.3952 33.9184 22.5164 35.7972 20.1979 35.7999H17.7979C15.4794 35.7972 13.6006 33.9184 13.5979 31.5999V25.5999C13.5979 24.9372 13.0607 24.3999 12.3979 24.3999H6.39795C4.07946 24.3973 2.20061 22.5184 2.19797 20.1999V17.7999C2.20061 15.4814 4.07946 13.6026 6.39795 13.5999H12.3979C13.0607 13.5999 13.5979 13.0627 13.5979 12.4V6.39998C13.6006 4.08149 15.4794 2.20264 17.7979 2.19999H20.1979C22.5164 2.20264 24.3952 4.08149 24.3979 6.39998V10.9936C23.8114 10.3031 22.9223 9.94622 22.0213 10.0396C21.1514 10.1884 20.4092 10.753 20.0335 11.5516C19.6044 12.4091 19.455 13.3796 19.6063 14.3265C19.7278 15.2779 20.1446 16.1672 20.7979 16.8693C21.3079 17.4339 22.0269 17.7648 22.7875 17.7849C22.9023 17.7848 23.017 17.7766 23.1307 17.7603C24.0006 17.6115 24.7428 17.0469 25.1185 16.2483C25.442 15.6145 25.6065 14.9115 25.5979 14.1999V6.39998C25.5942 3.41916 23.1787 1.00364 20.1979 1H17.7979C14.8171 1.00364 12.4016 3.41916 12.3979 6.39998V12.4H6.39795C3.41713 12.4036 1.00161 14.8191 0.997971 17.7999L0.997971 20.1999ZM22.5433 27.9999C21.8582 28.0455 21.2233 27.6392 20.9779 26.9979C20.593 25.8123 20.9026 24.5111 21.7801 23.6259C22.3451 23.0337 22.8344 22.3737 23.2369 21.6609C23.9953 20.4195 24.4975 19.5999 26.1979 19.5999C27.8983 19.5999 28.4005 20.4195 29.16 21.6609C29.5625 22.3737 30.0518 23.0337 30.6168 23.6259C31.4939 24.5114 31.803 25.8126 31.4178 26.9979C31.1724 27.6392 30.5376 28.0455 29.8524 27.9999C29.3053 28.0123 28.771 27.8339 28.3411 27.4953C27.0627 26.5681 25.333 26.5681 24.0547 27.4953C23.6248 27.8339 23.0904 28.0123 22.5433 27.9999ZM24.0571 15.6879C23.8812 16.162 23.4601 16.5019 22.9596 16.5738C22.4591 16.6458 21.9594 16.4382 21.6571 16.0329C21.1803 15.5128 20.8782 14.8566 20.7931 14.1561C20.6769 13.4601 20.7818 12.7452 21.0931 12.112C21.2939 11.657 21.7027 11.3274 22.1899 11.2276C23.1583 11.0902 24.1477 12.1954 24.3559 13.6437C24.3819 13.8246 24.3954 14.007 24.3961 14.1897V14.1999C24.4058 14.7161 24.2894 15.2269 24.0571 15.6879Z" fill="#424153" stroke="#424153" stroke-width="0.25"/>
<path d="M16.6184 16.402C15.4274 16.9792 15.0458 18.6598 15.767 20.149C16.2201 21.2035 17.2243 21.9166 18.3692 21.997C18.6691 21.9984 18.9655 21.9312 19.2356 21.8008C20.4266 21.2236 20.8082 19.5424 20.0864 18.0544C19.3646 16.5664 17.8094 15.8248 16.6184 16.402ZM18.7124 20.722C18.1256 21.0064 17.2724 20.5036 16.847 19.6258C16.4216 18.748 16.5566 17.7658 17.1416 17.4826C17.2539 17.4287 17.377 17.4014 17.5016 17.4028C18.1787 17.4956 18.7541 17.9445 19.0088 18.5788C19.4324 19.456 19.298 20.4406 18.7124 20.722Z" fill="#424153" stroke="#424153" stroke-width="0.25"/>
<path d="M29.2649 17.7604C29.3786 17.7766 29.4933 17.7848 29.6081 17.785C30.3686 17.7645 31.0876 17.4337 31.5977 16.8694C32.2511 16.1672 32.6678 15.2779 32.7893 14.3266C32.9406 13.3797 32.7912 12.4091 32.3621 11.5516C31.9865 10.753 31.2442 10.1884 30.3743 10.0396C28.7393 9.8044 27.1559 11.3446 26.8499 13.4734C26.6992 14.4203 26.8486 15.3906 27.2771 16.2484C27.6528 17.0469 28.3951 17.6115 29.2649 17.7604ZM28.0379 13.6438C28.2347 12.2776 29.1275 11.2156 30.0389 11.2156C30.0941 11.2157 30.1493 11.2197 30.2039 11.2276C30.6911 11.3274 31.0999 11.657 31.3007 12.112C31.612 12.7453 31.7169 13.4602 31.6007 14.1562C31.5156 14.8566 31.2135 15.5128 30.7367 16.033C30.4344 16.4383 29.9347 16.6458 29.4342 16.5739C28.9337 16.5019 28.5126 16.162 28.3367 15.688C28.0261 15.0545 27.9217 14.3397 28.0379 13.6438Z" fill="#424153" stroke="#424153" stroke-width="0.25"/>
<path d="M33.1569 21.8008C33.427 21.9312 33.7233 21.9984 34.0233 21.997C35.1683 21.9163 36.1724 21.203 36.6255 20.1484C37.3455 18.6598 36.9651 16.9792 35.7741 16.402C34.5831 15.8248 33.0279 16.5664 32.3061 18.0544C31.5843 19.5424 31.9683 21.2236 33.1569 21.8008ZM34.8969 17.4022C35.0214 17.4008 35.1446 17.4281 35.2569 17.482C35.8419 17.7652 35.9769 18.7474 35.5515 19.6252C35.1261 20.503 34.2711 21.0052 33.6867 20.7214C33.1023 20.4376 32.9667 19.456 33.3921 18.5782C33.6464 17.9446 34.2206 17.4958 34.8969 17.4022Z" fill="#424153" stroke="#424153" stroke-width="0.25"/>
<path d="M4.59836 17.8C4.59836 16.8059 5.40424 16 6.39835 16C6.72972 16 6.99835 15.7314 6.99835 15.4C6.99835 15.0687 6.72972 14.8 6.39835 14.8C4.74232 14.802 3.40034 16.144 3.39836 17.8C3.39836 18.1314 3.66699 18.4 3.99836 18.4C4.32973 18.4 4.59836 18.1314 4.59836 17.8Z" fill="#424153" stroke="#424153" stroke-width="0.25"/>
<path d="M9.39781 16.0004C9.72935 16.0004 9.99812 15.7317 9.99812 15.4001C9.99812 15.0686 9.72935 14.7998 9.39781 14.7998H8.7975C8.46596 14.7998 8.19719 15.0686 8.19719 15.4001C8.19719 15.7317 8.46596 16.0004 8.7975 16.0004H9.39781Z" fill="#424153" stroke="#424153" stroke-width="0.25"/>
</svg>
