<svg width="38" height="36" viewBox="0 0 38 36" fill="none" xmlns="http://www.w3.org/2000/svg">
<path d="M12.9805 13.968C13.3925 13.968 13.7264 13.634 13.7264 13.222C13.7264 12.8101 13.3925 12.4761 12.9805 12.4761C12.5685 12.4761 12.2345 12.8101 12.2345 13.222C12.2345 13.634 12.5685 13.968 12.9805 13.968Z" fill="#424153"/>
<path d="M7.82733 1.84512L8.44008 3.5681C8.46635 3.64187 8.51823 3.70036 8.58376 3.7299L10.1146 4.41961C10.3309 4.51706 10.3309 4.86165 10.1146 4.95903L8.58376 5.64874C8.51823 5.67828 8.46627 5.73676 8.44008 5.81046L7.82733 7.53344C7.74079 7.77688 7.43464 7.77688 7.34803 7.53344L6.73528 5.81046C6.70901 5.73669 6.65713 5.6782 6.59159 5.64874L5.06076 4.95903C4.84449 4.86158 4.84449 4.51698 5.06076 4.41961L6.59159 3.7299C6.65713 3.70036 6.70908 3.64187 6.73528 3.5681L7.34803 1.84512C7.43457 1.60176 7.74072 1.60176 7.82733 1.84512Z" fill="#424153"/>
<path d="M26.8347 0.439574L27.2892 1.71769C27.3086 1.77239 27.3471 1.81581 27.3957 1.8377L28.5313 2.34929C28.6917 2.42158 28.6917 2.67718 28.5313 2.74947L27.3957 3.26106C27.3471 3.28295 27.3086 3.3263 27.2892 3.38107L26.8347 4.65919C26.7705 4.83976 26.5434 4.83976 26.4792 4.65919L26.0246 3.38107C26.0052 3.32637 25.9667 3.28295 25.9181 3.26106L24.7825 2.74947C24.6221 2.67718 24.6221 2.42158 24.7825 2.34929L25.9181 1.8377C25.9667 1.81581 26.0052 1.77239 26.0246 1.71769L26.4792 0.439574C26.5434 0.259074 26.7704 0.259074 26.8347 0.439574Z" fill="#424153"/>
<path d="M17.2327 7.38281C17.9716 7.38281 18.5707 6.78376 18.5707 6.0448C18.5707 5.30583 17.9716 4.70679 17.2327 4.70679C16.4937 4.70679 15.8947 5.30583 15.8947 6.0448C15.8947 6.78376 16.4937 7.38281 17.2327 7.38281Z" fill="#424153"/>
<path d="M29.9328 7.8917C30.2516 7.8917 30.51 7.63328 30.51 7.3145C30.51 6.99572 30.2516 6.7373 29.9328 6.7373C29.614 6.7373 29.3556 6.99572 29.3556 7.3145C29.3556 7.63328 29.614 7.8917 29.9328 7.8917Z" fill="#424153"/>
<path d="M35.4302 29.4868L32.6472 20.2156C32.3593 19.2566 31.6235 18.5417 30.7058 18.2678C30.7766 17.9839 30.8148 17.6874 30.8148 17.3818C30.8148 15.3543 29.1653 13.7048 27.1377 13.7048C26.9925 13.7048 26.848 13.7133 26.7047 13.7303C26.709 13.6579 26.7112 13.5854 26.7112 13.5128C26.7112 11.4853 25.0617 9.83569 23.0342 9.83569C21.6418 9.83569 20.4153 10.5981 19.7907 11.7746C19.336 11.5801 18.8431 11.4772 18.3444 11.4772C17.7371 11.4772 17.1418 11.6301 16.6131 11.9122C16.0134 10.6747 14.7436 9.83569 13.3028 9.83569C11.2752 9.83569 9.62573 11.4853 9.62573 13.5128C9.62573 13.5808 9.62758 13.6487 9.63137 13.7165C8.23458 14.2523 7.28087 15.5973 7.28087 17.1474C7.28087 17.5238 7.33824 17.887 7.44393 18.2292C6.45356 18.4733 5.63404 19.2322 5.3411 20.2395L2.65343 29.4791C1.17017 29.6004 0.00012207 30.8455 0.00012207 32.3595V32.8048C0.00012207 34.3989 1.29701 35.6958 2.89115 35.6958H35.109C36.703 35.6958 38 34.3989 38 32.8048V32.3595C37.9999 30.874 36.8736 29.6471 35.4302 29.4868ZM10.5915 14.9934C10.7979 14.9586 10.9803 14.8386 11.094 14.6627C11.2076 14.4868 11.2422 14.2713 11.1891 14.0687C11.1416 13.8877 11.1176 13.7007 11.1176 13.5128C11.1176 12.3078 12.0979 11.3276 13.3028 11.3276C14.4023 11.3276 15.334 12.1491 15.4701 13.2385C15.5059 13.5252 15.7041 13.7656 15.9788 13.8552C16.2535 13.9449 16.5553 13.8678 16.7534 13.6573C17.1713 13.2135 17.7362 12.969 18.3443 12.969C18.8458 12.969 19.3177 13.1348 19.709 13.4483C19.9097 13.6092 20.1792 13.6553 20.422 13.5702C20.6647 13.4852 20.8467 13.2811 20.9032 13.0301C21.1255 12.0436 22.0217 11.3276 23.0342 11.3276C24.2391 11.3276 25.2194 12.3078 25.2194 13.5128C25.2194 13.8678 25.1364 14.2069 24.9728 14.5208C24.8184 14.8169 24.8795 15.1794 25.1225 15.4085C25.3654 15.6374 25.731 15.6772 26.0175 15.5056C26.355 15.3034 26.7425 15.1966 27.1378 15.1966C28.3427 15.1966 29.3229 16.1768 29.3229 17.3818C29.3229 17.6504 29.2734 17.9075 29.1843 18.1453H9.01506C8.86054 17.8459 8.77266 17.5068 8.77266 17.1472C8.77266 16.0769 9.53756 15.1711 10.5915 14.9934ZM6.77351 20.6561C6.948 20.0562 7.5062 19.6373 8.13089 19.6373H29.8643C30.4933 19.6373 31.0375 20.0421 31.2183 20.6445L33.867 29.4685H4.21023L6.77351 20.6561ZM36.508 32.8048C36.508 33.5763 35.8804 34.2039 35.1089 34.2039H2.89115C2.11972 34.2039 1.49206 33.5763 1.49206 32.8048V32.3595C1.49206 31.588 2.11972 30.9604 2.89115 30.9604H35.109C35.8804 30.9604 36.5081 31.588 36.5081 32.3595L36.508 32.8048Z" fill="#424153"/>
<path d="M22.7802 27.9819C21.7276 27.9819 20.8516 27.2109 20.6871 26.2041H17.3117C17.1472 27.2109 16.2712 27.9819 15.2186 27.9819C14.0492 27.9819 13.0978 27.0305 13.0978 25.8611C13.0978 25.3889 13.2533 24.9379 13.5347 24.5713C13.2533 24.2047 13.0978 23.7538 13.0978 23.2815C13.0978 22.112 14.0492 21.1606 15.2186 21.1606C16.2712 21.1606 17.1472 21.9316 17.3117 22.9385H20.6871C20.8515 21.9316 21.7275 21.1606 22.7802 21.1606C23.9496 21.1606 24.9009 22.112 24.9009 23.2815C24.9009 23.7538 24.7454 24.2047 24.464 24.5713C24.7454 24.938 24.9009 25.3889 24.9009 25.8611C24.901 27.0305 23.9496 27.9819 22.7802 27.9819ZM16.8883 25.3089H21.1105C21.2339 25.3089 21.3519 25.3599 21.4364 25.4498C21.521 25.5397 21.5648 25.6606 21.5572 25.7838C21.5556 25.8094 21.5544 25.8351 21.5544 25.8611C21.5544 26.537 22.1043 27.0868 22.7801 27.0868C23.4559 27.0868 24.0057 26.537 24.0057 25.8611C24.0057 25.4946 23.8435 25.1503 23.5606 24.9162C23.4578 24.8311 23.3984 24.7047 23.3984 24.5713C23.3984 24.4379 23.4579 24.3114 23.5606 24.2264C23.8435 23.9924 24.0057 23.6479 24.0057 23.2814C24.0057 22.6056 23.4559 22.0558 22.7801 22.0558C22.1043 22.0558 21.5544 22.6056 21.5544 23.2814C21.5544 23.3074 21.5556 23.3332 21.5572 23.3587C21.5648 23.4819 21.521 23.6028 21.4364 23.6927C21.3519 23.7826 21.2339 23.8335 21.1105 23.8335H16.8883C16.7648 23.8335 16.6467 23.7825 16.5621 23.6925C16.4775 23.6024 16.4339 23.4815 16.4416 23.3582C16.4432 23.3328 16.4443 23.3072 16.4443 23.2814C16.4443 22.6055 15.8945 22.0557 15.2186 22.0557C14.5428 22.0557 13.993 22.6055 13.993 23.2814C13.993 23.6479 14.1552 23.9923 14.438 24.2263C14.5408 24.3114 14.6003 24.4378 14.6003 24.5712C14.6003 24.7046 14.5408 24.831 14.438 24.9161C14.1552 25.1501 13.993 25.4945 13.993 25.861C13.993 26.5369 14.5428 27.0867 15.2186 27.0867C15.8945 27.0867 16.4443 26.5369 16.4443 25.861C16.4443 25.8352 16.4432 25.8096 16.4416 25.7842C16.4339 25.661 16.4775 25.54 16.5621 25.4499C16.6468 25.36 16.7648 25.3089 16.8883 25.3089Z" fill="#424153" stroke="#424153" stroke-width="0.25"/>
<path d="M19.5455 16.571C19.2983 16.571 19.0978 16.3706 19.0978 16.1234V15.2208C19.0978 14.9737 19.2982 14.7732 19.5455 14.7732C19.7926 14.7732 19.9931 14.9736 19.9931 15.2208V16.1234C19.993 16.3705 19.7926 16.571 19.5455 16.571Z" fill="#424153"/>
<path d="M22.8637 17.2767C22.6165 17.2767 22.4161 17.0763 22.4161 16.8292V15.9266C22.4161 15.6795 22.6165 15.479 22.8637 15.479C23.1108 15.479 23.3113 15.6794 23.3113 15.9266V16.8292C23.3113 17.0763 23.1108 17.2767 22.8637 17.2767Z" fill="#424153"/>
</svg>
