<svg width="36" height="38" viewBox="0 0 36 38" fill="none" xmlns="http://www.w3.org/2000/svg">
<path d="M14.8112 18.6717C14.5698 19.0896 14.5058 19.5765 14.6307 20.0426L15.0391 21.5666C15.164 22.0327 15.4629 22.4223 15.8809 22.6636C16.1593 22.8243 16.4681 22.9064 16.7812 22.9064C16.9382 22.9064 17.0962 22.8858 17.2518 22.8441C17.7179 22.7192 18.1075 22.4203 18.3488 22.0024C18.5901 21.5845 18.6542 21.0976 18.5292 20.6314L18.1208 19.1074C17.9959 18.6413 17.697 18.2517 17.2791 18.0104C16.8613 17.7691 16.3745 17.705 15.9082 17.8299C15.442 17.9548 15.0524 18.2538 14.8112 18.6717ZM15.7245 19.199C15.825 19.0251 15.9871 18.9007 16.1811 18.8487C16.246 18.8314 16.3113 18.823 16.3755 18.823C16.7075 18.823 17.0121 19.0448 17.102 19.3804L17.5105 20.9045C17.5624 21.0985 17.5357 21.3011 17.4354 21.475C17.3349 21.649 17.1728 21.7734 16.9788 21.8253C16.5778 21.9328 16.1652 21.6941 16.0578 21.2937L15.6494 19.7697C15.5974 19.5756 15.6241 19.3729 15.7245 19.199Z" fill="#424153" stroke="#424153" stroke-width="0.25"/>
<path d="M29.9881 17.8298C29.522 17.7051 29.0351 17.769 28.6172 18.0103C28.1993 18.2516 27.9004 18.6412 27.7755 19.1073L27.367 20.6314C27.2421 21.0975 27.3062 21.5843 27.5474 22.0023C27.7888 22.4201 28.1784 22.7191 28.6445 22.844C28.8001 22.8857 28.9581 22.9063 29.115 22.9063C29.428 22.9063 29.737 22.8242 30.0153 22.6635C30.4333 22.4222 30.7322 22.0326 30.8571 21.5665L31.2655 20.0424C31.3904 19.5763 31.3263 19.0895 31.0851 18.6716C30.8438 18.2537 30.4542 17.9547 29.9881 17.8298ZM30.2468 19.7695L29.8384 21.2935C29.7311 21.6939 29.3179 21.9327 28.9175 21.8251C28.7234 21.7732 28.5613 21.6487 28.4609 21.4748C28.3605 21.3009 28.3337 21.0983 28.3858 20.9043L28.7942 19.3802C28.8842 19.0447 29.1887 18.8229 29.5207 18.8229C29.5849 18.8229 29.6502 18.8312 29.7151 18.8486C29.9092 18.9006 30.0712 19.025 30.1717 19.1989C30.2721 19.3729 30.2988 19.5755 30.2468 19.7695Z" fill="#424153" stroke="#424153" stroke-width="0.25"/>
<path d="M18.6484 16.3115V17.8893C18.6484 18.8854 19.4589 19.6959 20.455 19.6959C21.4512 19.6959 22.2616 18.8855 22.2616 17.8893V16.3115C22.2616 15.3153 21.4512 14.5049 20.455 14.5049C19.4589 14.5049 18.6484 15.3154 18.6484 16.3115ZM21.2069 16.3115V17.8893C21.2069 18.3039 20.8695 18.6412 20.455 18.6412C20.0404 18.6412 19.7031 18.3039 19.7031 17.8893V16.3115C19.7031 15.8969 20.0404 15.5596 20.455 15.5596C20.8696 15.5596 21.2069 15.8969 21.2069 16.3115Z" fill="#424153" stroke="#424153" stroke-width="0.25"/>
<path d="M23.6328 16.3115V17.8893C23.6328 18.8854 24.4432 19.6959 25.4394 19.6959C26.4355 19.6959 27.246 18.8855 27.246 17.8893V16.3115C27.246 15.3153 26.4355 14.5049 25.4394 14.5049C24.4433 14.5049 23.6328 15.3154 23.6328 16.3115ZM26.1913 16.3115V17.8893C26.1913 18.3039 25.8541 18.6412 25.4395 18.6412C25.0249 18.6412 24.6876 18.3039 24.6876 17.8893V16.3115C24.6876 15.8969 25.0249 15.5596 25.4395 15.5596C25.8541 15.5596 26.1913 15.8969 26.1913 16.3115Z" fill="#424153" stroke="#424153" stroke-width="0.25"/>
<path d="M10.9932 30.306L10.873 30.4263L10.7528 30.306C10.4156 29.9689 9.96724 29.7832 9.49038 29.7832C9.01352 29.7832 8.56521 29.9689 8.22799 30.3061C7.89077 30.6433 7.70508 31.0916 7.70508 31.5686C7.70508 32.0454 7.89077 32.4938 8.22799 32.831L10.261 34.864C10.4298 35.0327 10.6514 35.117 10.873 35.117C11.0946 35.117 11.3163 35.0326 11.4851 34.8639L13.518 32.831C13.8552 32.4938 14.0409 32.0454 14.0409 31.5686C14.0409 31.0917 13.8552 30.6433 13.518 30.3061C12.822 29.61 11.6893 29.6101 10.9932 30.306ZM12.7722 32.0852L10.873 33.9844L8.9738 32.0852C8.68889 31.8003 8.68889 31.3368 8.9738 31.0519C9.11175 30.9139 9.2952 30.8379 9.49038 30.8379C9.68557 30.8379 9.86909 30.9139 10.007 31.0519L10.5001 31.545C10.7062 31.7509 11.04 31.7509 11.2459 31.545L11.739 31.0519C12.0239 30.7672 12.4873 30.767 12.7722 31.0519C13.0571 31.3367 13.0571 31.8003 12.7722 32.0852Z" fill="#424153" stroke="#424153" stroke-width="0.25"/>
<path d="M27.4453 33.519C27.4453 33.8103 27.6814 34.0464 27.9727 34.0464H31.355C31.6463 34.0464 31.8824 33.8103 31.8824 33.519C31.8824 33.2278 31.6463 32.9917 31.355 32.9917H27.9727C27.6814 32.9917 27.4453 33.2278 27.4453 33.519Z" fill="#424153" stroke="#424153" stroke-width="0.25"/>
<path d="M33.4099 37C34.0802 37 34.7062 36.7349 35.1726 36.2536C35.6391 35.7723 35.8843 35.1383 35.8633 34.4685L35.1661 12.2233C35.1563 11.911 35.0842 11.609 34.9515 11.3259L32.9583 7.06867C32.8824 6.90653 32.8423 6.72611 32.8423 6.54695V2.6837C32.8423 1.7553 32.087 1 31.1586 1H14.7375C13.8091 1 13.0538 1.7553 13.0538 2.6837V6.54695C13.0538 6.72611 13.0137 6.90653 12.9378 7.06867L10.9444 11.3259C10.8119 11.609 10.7397 11.9109 10.7299 12.2232L10.6039 16.2465C10.5947 16.5376 10.8233 16.781 11.1144 16.7901C11.1201 16.7903 11.1257 16.7904 11.1312 16.7904C11.4149 16.7904 11.6491 16.565 11.658 16.2795L11.7841 12.2563C11.7893 12.0881 11.8282 11.9255 11.8996 11.7731L13.8929 7.51593C14.0339 7.21471 14.1085 6.87967 14.1085 6.54695V2.6837C14.1085 2.33685 14.3907 2.05469 14.7375 2.05469H31.1586C31.5055 2.05469 31.7876 2.33685 31.7876 2.6837V6.54695C31.7876 6.87967 31.8622 7.21478 32.0032 7.51593L33.9964 11.7731C34.0679 11.9256 34.1067 12.0881 34.112 12.2563L34.8092 34.5016C34.8212 34.8837 34.6813 35.2452 34.4153 35.5196C34.1493 35.7941 33.7922 35.9453 33.4099 35.9453H21.5221C21.6117 35.692 21.6367 35.4173 21.5891 35.1455L20.7236 30.1942C21.3311 30.193 21.928 30.0444 22.4616 29.7595C22.7662 29.5968 23.13 29.5969 23.4345 29.7595C24.0298 30.0775 24.7039 30.2261 25.3839 30.1889C27.2998 30.0848 28.8373 28.4994 28.8843 26.5796C28.9227 25.0107 27.964 23.581 26.4986 23.0222C26.4 22.9845 26.3187 22.9096 26.2699 22.8111C25.6388 21.5399 24.3659 20.7503 22.948 20.7503C21.5301 20.7503 20.2572 21.5399 19.6261 22.8111C19.5773 22.9096 19.496 22.9845 19.3974 23.0222C18.4011 23.4021 17.6288 24.188 17.2561 25.1596C16.7067 24.8395 16.069 24.6552 15.3886 24.6552C14.6932 24.6552 14.0279 24.8436 13.4441 25.2031C12.8888 24.8897 12.2651 24.7255 11.62 24.7255C11.5442 24.7255 11.4686 24.7285 11.3931 24.7331L11.5861 18.5778C11.5952 18.2868 11.3666 18.0433 11.0755 18.0343C11.0699 18.034 11.0643 18.034 11.0587 18.034C10.7751 18.034 10.5409 18.2593 10.5319 18.5448L10.3464 24.465C9.61563 24.0368 8.77983 23.8067 7.92265 23.8067C7.77738 23.8067 7.63043 23.8133 7.48601 23.8263C7.1959 23.8525 6.98201 24.1089 7.00816 24.3989C7.03432 24.689 7.29159 24.9027 7.58072 24.8767C7.69378 24.8665 7.80881 24.8613 7.92258 24.8613C8.8242 24.8613 9.69579 25.1874 10.3767 25.7795C10.5122 25.8972 10.6982 25.938 10.8705 25.8877C11.1148 25.8163 11.3669 25.7802 11.62 25.7802C12.1718 25.7802 12.7017 25.9479 13.1525 26.265C13.3406 26.3974 13.5924 26.3927 13.7753 26.2534C14.2426 25.8978 14.8005 25.7099 15.3886 25.7099C16.6968 25.7099 17.7874 26.6567 18.0128 27.9008H4.24699C4.4201 26.989 4.9253 26.1719 5.68334 25.6047C5.91656 25.4303 5.96416 25.0998 5.78979 24.8666C5.61534 24.6334 5.28487 24.5858 5.05165 24.7602C4.02579 25.5276 3.36028 26.6526 3.17698 27.9008H2.75243C1.98209 27.9008 1.32677 28.4515 1.19409 29.2104L0.156633 35.1455C0.0759141 35.6069 0.202477 36.0771 0.503836 36.4357C0.805125 36.7943 1.24662 36.9999 1.71497 36.9999H33.4099V37ZM19.7732 24.0077C20.1205 23.8753 20.4037 23.6169 20.5709 23.2801C21.0226 22.3702 21.9335 21.805 22.9481 21.805C23.9627 21.805 24.8735 22.3702 25.3253 23.2801C25.4925 23.6169 25.7758 23.8753 26.1229 24.0077C27.1715 24.4075 27.8575 25.4308 27.8299 26.5538C27.7963 27.9272 26.6969 29.0614 25.3267 29.1358C24.8393 29.1623 24.3567 29.0563 23.9313 28.8292C23.3157 28.5003 22.5804 28.5003 21.9648 28.8292C21.5394 29.0563 21.0567 29.1623 20.5693 29.1358C20.5578 29.1352 20.5465 29.1355 20.5351 29.1356C20.3798 28.4442 19.7866 27.9429 19.0798 27.9047C18.9808 27.127 18.6418 26.4232 18.1383 25.8713C18.3396 25.0244 18.949 24.322 19.7732 24.0077ZM1.3113 35.7572C1.20942 35.6359 1.16829 35.4832 1.19557 35.3271L2.2331 29.392C2.27733 29.139 2.49579 28.9554 2.75257 28.9554H18.9934C19.2501 28.9554 19.4686 29.139 19.5128 29.392L20.5504 35.3271C20.5776 35.4832 20.5365 35.6359 20.4346 35.7572C20.3327 35.8785 20.1894 35.9453 20.031 35.9453H1.71497C1.55655 35.9453 1.41319 35.8785 1.3113 35.7572Z" fill="#424153" stroke="#424153" stroke-width="0.25"/>
<path d="M29.8106 3.93018H26.5898C26.2985 3.93018 26.0625 4.16629 26.0625 4.45752C26.0625 4.74875 26.2985 4.98486 26.5898 4.98486H29.8106C30.1019 4.98486 30.3379 4.74875 30.3379 4.45752C30.3379 4.16629 30.1019 3.93018 29.8106 3.93018Z" fill="#424153" stroke="#424153" stroke-width="0.25"/>
<path d="M24.291 3.93018H16.0858C15.7944 3.93018 15.5584 4.16629 15.5584 4.45752C15.5584 4.74875 15.7944 4.98486 16.0858 4.98486H24.291C24.5823 4.98486 24.8184 4.74875 24.8184 4.45752C24.8184 4.16629 24.5822 3.93018 24.291 3.93018Z" fill="#424153" stroke="#424153" stroke-width="0.25"/>
</svg>
